# xmcd
#
# Track frame offsets: 
#        150
#        32611
#        53937
#        72324
#        91128
#        124958
#        139471
#        163080
#        186994
#        215304
#        226918
#        259942
#        278146
#        308106
#
# Disc length: 4584 seconds
#
# Revision: 1
# Processed by: cddbd v1.5.2PL0 Copyright (c) Steve Scherf et al.
# Submitted via: ExactAudioCopy v0.99pb4
#
DISCID=d011e60e
DTITLE=Clare Fischer - The Pacific Jazz Piano Trios CD 3
DYEAR=2005
DGENRE=Jazz
TTITLE0=Nigerian Walk
TTITLE1=Toddler
TTITLE2=Stranger
TTITLE3=Afterfact
TTITLE4=Free Too Long
TTITLE5=Place For Scotty
TTITLE6=Blues For Home
TTITLE7=I Love You
TTITLE8=Billie's Bounce
TTITLE9=Way Down East
TTITLE10=Satin Doll
TTITLE11=This Can't Be Love
TTITLE12=Lennie's Pennies
TTITLE13=All The Things You Are
EXTD=YEAR: 2005
EXTT0=
EXTT1=
EXTT2=
EXTT3=
EXTT4=
EXTT5=
EXTT6=
EXTT7=
EXTT8=
EXTT9=
EXTT10=
EXTT11=
EXTT12=
EXTT13=
PLAYORDER=
